<svg id="Layer_1" data-name="Layer 1" xmlns="http://www.w3.org/2000/svg" viewBox="0 0 487.52 60.26">
  <defs>
    <style>
      .cls-1 {
        fill: #0e122a;
      }
    </style>
  </defs>
  <path class="cls-1" d="m111.6,8.87v2.14h-16.47v47.93h-5.77V11.01h-16.48v-2.14h38.72Z"/>
  <path class="cls-1" d="m148.55,0v1.98h-29.01V0h29.01Z"/>
  <path class="cls-1" d="m148.55,8.87v2.14h-23.16v19.75h21.33v2.02h-21.33v23.9h23.5v2.26h-29.25V8.87h28.91Z"/>
  <path class="cls-1" d="m188.38,8.87v2.14h-23.16v19.75h21.33v2.02h-21.33v23.9h23.5v2.26h-29.25V8.87h28.91Z"/>
  <path class="cls-1" d="m28.91,8.87v2.14H5.75v19.75h21.33v2.02H5.75v23.9h23.5v2.26H0V8.87h28.91Z"/>
  <path class="cls-1" d="m438.18,8.87v2.11h-23.16v19.78h21.33v2.02h-21.33v23.9h23.5v2.26h-29.25V8.87c.95,0,27.96,0,28.91,0Z"/>
  <path class="cls-1" d="m225.58,8.87v47.78s22.32-.06,23.27-.06v2.35h-28.98V8.87h5.71Z"/>
  <path class="cls-1" d="m65.72,46.61c.06-6.72-6.34-8.84-13.11-11.08-7.66-2.53-15.57-5.15-15.49-14.59.08-8.66,8.71-13.25,16.8-13.18,6.43.06,11.46,2.26,13.55,3.34,0,.41-.02,2.17-.03,3.32-2.12-1.68-6.63-4.73-13.23-4.79-6.92-.06-12.17,4.07-12.21,9.6-.06,6.66,6.46,8.84,13.36,11.15,7.64,2.55,15.53,5.19,15.46,14.11-.09,10.47-10.03,15.86-19.8,15.77-5.12-.04-10.16-1.3-14.24-3.52,0-.43,0-2.31,0-3.39,2.8,1.82,7.8,4.76,14.18,4.81,9.52.09,14.72-5.89,14.77-11.55Z"/>
  <path class="cls-1" d="m278.37,8.43c.25.59,8.32,19.56,8.32,19.56,0,0,11.29,26.49,13.19,30.94h-6.54c-.25-.6-7.92-19.41-7.92-19.41h-21.39s-7.61,18.8-7.85,19.41h-3.54c.56-1.34,20.84-49.91,21.09-50.51.55.01,4.1.01,4.64.01Zm-4.13,5.64c-3.5,9.08-8.12,20.35-9.08,22.65l-.29.69h19.71l-2.8-6.89-7.08-17.63-.46,1.18Z"/>
  <path class="cls-1" d="m344.57,8.87v34.03c0,10.72-7.43,17.12-19.87,17.12-13.07,0-19.97-6.05-19.97-17.49V8.86h5.67v35.01c0,8.99,5.62,14.36,15.04,14.36,9.97,0,16.16-5.88,16.16-15.33V8.87c.66,0,2.31,0,2.97,0Z"/>
  <path class="cls-1" d="m467.15,8.87c6.05-.12,11,1.41,13.95,4.29,2.15,2.1,3.24,4.89,3.25,8.29v.03c0,9.76-12.13,12.2-12.64,12.3l-.74.14s15.59,23.55,16.55,25.01h-6.32c-.29-.45-15.63-24.36-15.63-24.36h-10.65v24.36h-5.78V8.86c.95,0,18.01,0,18.01,0Zm-.57,1.92h-11.66v21.94h8.44c5.61.05,9.95-1.29,12.57-3.89,1.89-1.88,2.85-4.35,2.84-7.37,0-3.26-.95-5.84-2.8-7.67-2.09-2.05-5.25-3.06-9.39-3.01Z"/>
  <path class="cls-1" d="m374.83,8.87c7.86-.13,14.29,2.05,18.61,6.29,4.26,4.19,6.51,10.46,6.51,18.12s-2.26,14.12-6.72,18.53c-4.83,4.77-12.1,7.23-21.02,7.12h-16.47V8.86c.94.01,19.09.01,19.09.01Zm-.92,1.95h-12.41v46.14h9.49c7.79.08,13.46-1.74,17.32-5.56,3.81-3.78,5.75-9.59,5.75-17.28,0-8.18-2.04-14.34-6.05-18.31-3.42-3.37-8.16-5.05-14.1-4.99Z"/>
</svg>